<?xml version="1.0" encoding="UTF-8" standalone="no"?><!DOCTYPE svg PUBLIC "-//W3C//DTD SVG 1.1//EN" "http://www.w3.org/Graphics/SVG/1.1/DTD/svg11.dtd"><svg width="100%" height="100%" viewBox="0 0 1943 1900" version="1.1" xmlns="http://www.w3.org/2000/svg" xmlns:xlink="http://www.w3.org/1999/xlink" xml:space="preserve" xmlns:serif="http://www.serif.com/" style="fill-rule:evenodd;clip-rule:evenodd;stroke-linejoin:round;stroke-miterlimit:2;"><g><path d="M1250.7,214.662c-8.962,0 -16.239,-7.276 -16.239,-16.239c0,-8.963 7.277,-16.24 16.239,-16.24l279.229,0c145.123,0 262.944,117.822 262.944,262.945l0,262.598c0,8.962 -7.276,16.239 -16.239,16.239c-8.963,-0 -16.24,-7.277 -16.24,-16.239l0,-262.598c0,-127.198 -103.268,-230.466 -230.465,-230.466l-279.229,0Zm509.694,1018.26c0,-8.963 7.277,-16.24 16.24,-16.24c8.963,0 16.239,7.277 16.239,16.24l0,262.598c0,145.123 -117.821,262.944 -262.944,262.944l-279.229,-0c-8.962,-0 -16.239,-7.277 -16.239,-16.24c0,-8.962 7.277,-16.239 16.239,-16.239l279.229,-0c127.197,-0 230.465,-103.268 230.465,-230.465l0,-262.598Zm-1068.15,493.063c8.962,-0 16.239,7.277 16.239,16.239c0,8.963 -7.277,16.24 -16.239,16.24l-279.229,-0c-145.123,-0 -262.944,-117.821 -262.944,-262.944l-0,-262.598c-0,-8.963 7.276,-16.24 16.239,-16.24c8.963,0 16.24,7.277 16.24,16.24l-0,262.598c-0,127.197 103.268,230.465 230.465,230.465l279.229,-0Zm-509.694,-1018.26c-0,8.962 -7.277,16.239 -16.24,16.239c-8.963,-0 -16.239,-7.277 -16.239,-16.239l-0,-262.598c-0,-145.123 117.821,-262.945 262.944,-262.945l279.229,0c8.962,0 16.239,7.277 16.239,16.24c0,8.963 -7.277,16.239 -16.239,16.239l-279.229,0c-127.197,0 -230.465,103.268 -230.465,230.466l-0,262.598Z" style="fill:#fff;"/><rect x="0" y="0" width="1942.94" height="1899.36" style="fill:none;"/></g></svg>