<?xml version="1.0" encoding="UTF-8" standalone="no"?><!DOCTYPE svg PUBLIC "-//W3C//DTD SVG 1.1//EN" "http://www.w3.org/Graphics/SVG/1.1/DTD/svg11.dtd"><svg width="100%" height="100%" viewBox="0 0 975 989" version="1.1" xmlns="http://www.w3.org/2000/svg" xmlns:xlink="http://www.w3.org/1999/xlink" xml:space="preserve" xmlns:serif="http://www.serif.com/" style="fill-rule:evenodd;clip-rule:evenodd;stroke-linejoin:round;stroke-miterlimit:2;"><g><rect x="0" y="0" width="974.91" height="988.674" style="fill:none;"/><path d="M519.194,96.57l35.162,130.149c10.68,2.773 21.183,6.186 31.453,10.22l104.947,-84.626c19.464,11.74 37.887,25.125 55.066,40.008l-48.053,125.961c7.01,8.521 13.501,17.456 19.439,26.756l134.645,-6.777c8.846,20.937 15.883,42.595 21.033,64.734l-112.913,73.659c0.662,11.014 0.662,22.058 -0,33.072l112.913,73.659c-5.15,22.139 -12.187,43.796 -21.033,64.734l-134.645,-6.777c-5.938,9.3 -12.429,18.235 -19.439,26.756l48.053,125.961c-17.179,14.883 -35.602,28.268 -55.066,40.007l-104.947,-84.625c-10.27,4.034 -20.773,7.447 -31.453,10.22l-35.162,130.149c-22.647,1.944 -45.418,1.944 -68.065,0l-35.162,-130.149c-10.68,-2.773 -21.183,-6.186 -31.454,-10.22l-104.946,84.625c-19.464,-11.739 -37.887,-25.124 -55.066,-40.007l48.053,-125.961c-7.01,-8.521 -13.501,-17.456 -19.439,-26.756l-134.645,6.777c-8.847,-20.938 -15.884,-42.595 -21.034,-64.734l112.914,-73.659c-0.663,-11.014 -0.663,-22.058 0,-33.072l-112.914,-73.659c5.15,-22.139 12.187,-43.797 21.034,-64.734l134.645,6.777c5.938,-9.3 12.429,-18.235 19.439,-26.756l-48.053,-125.961c17.179,-14.883 35.602,-28.268 55.066,-40.008l104.946,84.626c10.271,-4.034 20.774,-7.447 31.454,-10.22l35.162,-130.149c22.647,-1.944 45.418,-1.944 68.065,-0Zm-34.033,207.495c104.381,0 189.125,84.744 189.125,189.125c0,104.381 -84.744,189.125 -189.125,189.125c-104.38,-0 -189.124,-84.744 -189.124,-189.125c-0,-104.381 84.744,-189.125 189.124,-189.125Z" style="fill:#fff;"/></g></svg>