<?xml version="1.0" encoding="UTF-8" standalone="no"?><!DOCTYPE svg PUBLIC "-//W3C//DTD SVG 1.1//EN" "http://www.w3.org/Graphics/SVG/1.1/DTD/svg11.dtd"><svg width="100%" height="100%" viewBox="0 0 1676 1601" version="1.1" xmlns="http://www.w3.org/2000/svg" xmlns:xlink="http://www.w3.org/1999/xlink" xml:space="preserve" xmlns:serif="http://www.serif.com/" style="fill-rule:evenodd;clip-rule:evenodd;stroke-linejoin:round;stroke-miterlimit:2;"><g><g><path d="M548.244,84.794c-226.938,56.106 -411.183,338.47 -411.183,673.262c-0,334.793 184.245,617.157 411.183,673.262c-302.584,-0 -548.244,-301.679 -548.244,-673.262c-0,-371.583 245.66,-673.262 548.244,-673.262Z" style="fill:#fff;"/><path d="M439.715,1463.4l-20.075,97.1l61.771,-298.77l-20.076,97.1l0,0l20.076,-97.1l164.551,189.792l-226.322,108.978l20.075,-97.1l0,0Z" style="fill:#fff;"/></g><path d="M1332.6,777.253l-144.597,313.766c-10.56,22.913 -37.736,32.943 -60.65,22.384l-681.125,-313.895c-22.913,-10.559 -32.943,-37.735 -22.383,-60.649l144.598,-313.766c10.559,-22.913 37.735,-32.943 60.649,-22.383l681.125,313.894c22.913,10.559 32.943,37.735 22.383,60.649Zm-52.268,2.295c9.095,-19.735 0.456,-43.142 -19.279,-52.237l-615.842,-283.809c-19.736,-9.095 -43.142,-0.456 -52.237,19.279l-124.541,270.244c-9.095,19.735 -0.456,43.142 19.279,52.236l615.842,283.809c19.736,9.095 43.142,0.457 52.237,-19.279l124.541,-270.243Z" style="fill:#fff;"/><g><path d="M1126.98,1516.11c226.938,-56.105 411.182,-338.469 411.182,-673.262c0,-334.792 -184.244,-617.156 -411.182,-673.261c302.584,-0 548.243,301.678 548.243,673.261c0,371.584 -245.659,673.262 -548.243,673.262Z" style="fill:#fff;"/><path d="M1235.51,137.508l20.076,-97.101l-61.772,298.771l20.076,-97.101l-0,0l-20.076,97.101l-164.55,-189.793l226.322,-108.978l-20.076,97.101l0,-0Z" style="fill:#fff;"/></g></g></svg>