<?xml version="1.0" encoding="UTF-8" standalone="no"?><!DOCTYPE svg PUBLIC "-//W3C//DTD SVG 1.1//EN" "http://www.w3.org/Graphics/SVG/1.1/DTD/svg11.dtd"><svg width="100%" height="100%" viewBox="0 0 1526 1196" version="1.1" xmlns="http://www.w3.org/2000/svg" xmlns:xlink="http://www.w3.org/1999/xlink" xml:space="preserve" xmlns:serif="http://www.serif.com/" style="fill-rule:evenodd;clip-rule:evenodd;stroke-linejoin:round;stroke-miterlimit:2;"><g><rect x="0" y="0" width="1525.45" height="1195.13" style="fill:none;"/><g><path d="M646.374,202.415l221.156,825.364l-641.125,-106.065l-82.229,-306.881l502.198,-412.418Z" style="fill:#fff;"/><path d="M1019.54,1042.26c18.317,-129.29 13.406,-308.089 -34.852,-488.188c-48.257,-180.099 -133.403,-337.399 -213.911,-440.209c119.556,50.886 248.387,210.754 303.441,416.22c55.054,205.465 23.417,408.33 -54.678,512.177Z" style="fill:#fff;"/><path d="M1246.28,905.513c23.067,-111.564 25.033,-264.694 -15.853,-417.284c-40.886,-152.59 -119.154,-284.221 -194.913,-369.305c116.39,39.069 237.798,171.234 284.443,345.316c46.645,174.081 7.585,349.244 -73.677,441.273Z" style="fill:#fff;"/></g></g></svg>